<?xml version="1.0" encoding="utf-8"?>
<!-- Generator: Adobe Illustrator 16.0.0, SVG Export Plug-In . SVG Version: 6.00 Build 0)  -->
<!DOCTYPE svg PUBLIC "-//W3C//DTD SVG 1.1//EN" "http://www.w3.org/Graphics/SVG/1.1/DTD/svg11.dtd">
<svg version="1.1" id="Layer_1" xmlns="http://www.w3.org/2000/svg" xmlns:xlink="http://www.w3.org/1999/xlink" x="0px" y="0px"
	 width="85.25px" height="32px" viewBox="0 0 85.25 32" enable-background="new 0 0 85.25 32" xml:space="preserve">
<g>
	<path fill="#FFFFFF" d="M6.621,26.583h9.203v4.194H1.146V3.362h5.476V26.583z"/>
	<g>
		<path fill="#FFFFFF" d="M35.625,9v4.729c-2-1.449-1.812-2.602-3.105-3.456c-1.295-0.854-3.022-1.282-4.833-1.282
			c-0.577,0-1.215,0.061-1.754,0.149c0.657,1.839,1.065,3.59,1.251,4.979c0.629-0.224,1.294-0.352,2.059-0.352
			c1.656,0,3.012,0.563,4.086,1.689c1.074,1.126,1.606,2.647,1.606,4.563c0,1.889-0.541,3.397-1.614,4.523
			c-1.075,1.126-2.442,1.689-4.099,1.689c-1.708,0-3.082-0.55-4.117-1.65c-1.036-1.1-1.553-2.622-1.553-4.563
			c0-1.603,0.373-2.906,1.078-3.945c-1.46-0.93-3.325-1.667-5.235-2.243c-0.055,0.104-0.12,0.196-0.173,0.304
			c-0.815,1.67-1.223,3.631-1.223,5.883c0,2.252,0.408,4.212,1.223,5.882c0.815,1.669,1.948,2.946,3.398,3.825
			c1.449,0.88,3.081,1.32,4.893,1.32s3.713-0.434,5.008-1.301c1.294-0.867,1.105-2.025,3.105-3.475V30h4V9H35.625z"/>
	</g>
	<path fill="#FFFFFF" d="M49.762,26.194h10.562v4.582H43.782v-4.349l9.902-12.62h-9.669V9.264h15.921v4.311L49.762,26.194z"/>
	<path fill="#FFFFFF" d="M83.778,21.069H68.013c0.077,1.916,0.595,3.326,1.553,4.232c0.958,0.907,2.148,1.359,3.573,1.359
		c1.268,0,2.323-0.311,3.165-0.932c0.841-0.621,1.378-1.462,1.611-2.524H83.7c-0.286,1.502-0.894,2.848-1.825,4.039
		c-0.932,1.191-2.129,2.123-3.592,2.796c-1.463,0.673-3.087,1.009-4.873,1.009c-2.097,0-3.961-0.447-5.592-1.34
		c-1.631-0.894-2.899-2.168-3.805-3.825c-0.906-1.656-1.359-3.611-1.359-5.863c0-2.252,0.453-4.213,1.359-5.883
		c0.906-1.67,2.174-2.944,3.805-3.825c1.631-0.879,3.495-1.32,5.592-1.32c2.122,0,3.979,0.44,5.572,1.32
		c1.592,0.881,2.821,2.091,3.688,3.631c0.867,1.541,1.301,3.294,1.301,5.262C83.972,19.748,83.907,20.37,83.778,21.069z
		 M77.08,14.661c-0.997-0.906-2.22-1.359-3.669-1.359c-1.476,0-2.718,0.453-3.729,1.359c-1.01,0.906-1.566,2.239-1.669,4h10.445
		C78.536,16.9,78.076,15.567,77.08,14.661z"/>
</g>
<path fill="#FFFFFF" d="M20.002,1.048c0,0,0.175,6.966-7.302,10.543c0,0,8.432,0.848,12.104,3.671
	C28.475,18.087,24.803,4.438,20.002,1.048z"/>
</svg>
